<mxfile host="65bd71144e">
    <diagram name="Page-1" id="jkyWEsUThgF6aey1WfAn">
        <mxGraphModel dx="1962" dy="228" grid="0" gridSize="10" guides="1" tooltips="1" connect="1" arrows="1" fold="1" page="0" pageScale="1" pageWidth="827" pageHeight="1169" math="0" shadow="0">
            <root>
                <mxCell id="0"/>
                <mxCell id="1" parent="0"/>
                <mxCell id="77" value="" style="rounded=0;whiteSpace=wrap;html=1;dashed=1;dashPattern=8 8;" parent="1" vertex="1">
                    <mxGeometry x="49" y="1733" width="1518" height="351" as="geometry"/>
                </mxCell>
                <mxCell id="108" value="" style="rounded=0;whiteSpace=wrap;html=1;dashed=1;dashPattern=8 8;" parent="1" vertex="1">
                    <mxGeometry x="651" y="1855" width="186" height="104" as="geometry"/>
                </mxCell>
                <mxCell id="66" value="&lt;span style=&quot;font-size: 24px; font-style: normal;&quot;&gt;Primary:&lt;/span&gt;&lt;div&gt;&lt;span style=&quot;font-size: 24px; font-style: normal;&quot;&gt;- Use real data&lt;/span&gt;&lt;div&gt;&lt;span style=&quot;font-size: 24px; font-style: normal;&quot;&gt;- Structured output (compatible w SQL/PowerBI) (user_id, has_overlap:bool, summary &lt;/span&gt;&lt;span style=&quot;font-size: 24px;&quot;&gt;why it has overlap&lt;/span&gt;&lt;span style=&quot;font-size: 24px; font-style: normal;&quot;&gt;)&lt;/span&gt;&lt;/div&gt;&lt;div&gt;&lt;span style=&quot;font-size: 24px; font-style: normal;&quot;&gt;&lt;br&gt;&lt;/span&gt;&lt;/div&gt;&lt;div&gt;&lt;span style=&quot;font-size: 24px; font-style: normal;&quot;&gt;Secondary:&lt;/span&gt;&lt;/div&gt;&lt;div&gt;&lt;span style=&quot;font-size: 24px; font-style: normal;&quot;&gt;- Look into batching&lt;/span&gt;&lt;/div&gt;&lt;div&gt;&lt;span style=&quot;color: rgb(63, 63, 63); font-size: 24px; font-style: normal;&quot;&gt;- Evaluate accuracy&lt;/span&gt;&lt;/div&gt;&lt;/div&gt;&lt;div&gt;&lt;span style=&quot;color: rgb(63, 63, 63); font-size: 24px; font-style: normal;&quot;&gt;- Cost of running&lt;/span&gt;&lt;/div&gt;&lt;div&gt;&lt;span style=&quot;color: rgb(63, 63, 63); font-size: 24px; font-style: normal;&quot;&gt;- Cost per query&lt;/span&gt;&lt;/div&gt;&lt;div&gt;&lt;span style=&quot;color: rgb(63, 63, 63); font-size: 24px; font-style: normal;&quot;&gt;&lt;br&gt;&lt;/span&gt;&lt;/div&gt;&lt;div&gt;&lt;span style=&quot;font-size: 24px; font-style: normal;&quot;&gt;OTHER:&lt;/span&gt;&lt;/div&gt;&lt;div&gt;&lt;span style=&quot;font-size: 24px; font-style: normal;&quot;&gt;- Cache&lt;/span&gt;&lt;/div&gt;&lt;div&gt;&lt;span style=&quot;font-size: 24px; font-style: normal;&quot;&gt;- Get last updated date from m365 and invalidate caches from before last refresh after that date&lt;/span&gt;&lt;/div&gt;" style="text;html=1;align=left;verticalAlign=top;whiteSpace=wrap;rounded=0;fontStyle=2" parent="1" vertex="1">
                    <mxGeometry x="309" y="989" width="1275" height="451" as="geometry"/>
                </mxCell>
                <mxCell id="124" style="edgeStyle=orthogonalEdgeStyle;html=1;entryX=0.5;entryY=1;entryDx=0;entryDy=0;rounded=0;curved=0;" parent="1" source="67" target="111" edge="1">
                    <mxGeometry relative="1" as="geometry">
                        <Array as="points">
                            <mxPoint x="-47" y="2036"/>
                            <mxPoint x="1449" y="2036"/>
                        </Array>
                    </mxGeometry>
                </mxCell>
                <mxCell id="135" style="edgeStyle=none;html=1;" edge="1" parent="1" source="67" target="133">
                    <mxGeometry relative="1" as="geometry"/>
                </mxCell>
                <mxCell id="67" value="CSV&amp;nbsp;&lt;div&gt;(user_ids, licenses)&lt;/div&gt;" style="shape=note;whiteSpace=wrap;html=1;backgroundOutline=1;darkOpacity=0.05;" parent="1" vertex="1">
                    <mxGeometry x="-108" y="1781.8600000000001" width="122" height="151.25" as="geometry"/>
                </mxCell>
                <mxCell id="94" style="edgeStyle=none;html=1;" parent="1" source="68" target="93" edge="1">
                    <mxGeometry relative="1" as="geometry"/>
                </mxCell>
                <mxCell id="68" value="Extract unique sets of licenses" style="shape=process;whiteSpace=wrap;html=1;backgroundOutline=1;" parent="1" vertex="1">
                    <mxGeometry x="257" y="1827.5" width="120" height="60" as="geometry"/>
                </mxCell>
                <mxCell id="74" style="edgeStyle=none;html=1;entryX=0.5;entryY=0;entryDx=0;entryDy=0;" parent="1" edge="1">
                    <mxGeometry relative="1" as="geometry">
                        <mxPoint x="487.5" y="1686.9899999999998" as="sourcePoint"/>
                        <mxPoint x="487.5" y="1827.5" as="targetPoint"/>
                    </mxGeometry>
                </mxCell>
                <mxCell id="70" value="Cache&lt;br&gt;key=set of licenses" style="shape=cylinder3;whiteSpace=wrap;html=1;boundedLbl=1;backgroundOutline=1;size=15;" parent="1" vertex="1">
                    <mxGeometry x="420.5" y="1535" width="123" height="151.99" as="geometry"/>
                </mxCell>
                <mxCell id="73" style="edgeStyle=none;html=1;entryX=0.5;entryY=1;entryDx=0;entryDy=0;entryPerimeter=0;" parent="1" edge="1">
                    <mxGeometry relative="1" as="geometry">
                        <mxPoint x="476.5" y="1827.5" as="sourcePoint"/>
                        <mxPoint x="476.5" y="1686.9899999999998" as="targetPoint"/>
                    </mxGeometry>
                </mxCell>
                <mxCell id="80" style="edgeStyle=none;html=1;" parent="1" source="76" target="79" edge="1">
                    <mxGeometry relative="1" as="geometry"/>
                </mxCell>
                <mxCell id="76" value="Genereate context" style="shape=process;whiteSpace=wrap;html=1;backgroundOutline=1;" parent="1" vertex="1">
                    <mxGeometry x="679" y="1767.5" width="136" height="60" as="geometry"/>
                </mxCell>
                <mxCell id="92" style="edgeStyle=none;html=1;" parent="1" source="79" target="91" edge="1">
                    <mxGeometry relative="1" as="geometry"/>
                </mxCell>
                <mxCell id="117" style="edgeStyle=none;html=1;entryX=0.5;entryY=1;entryDx=0;entryDy=0;" parent="1" edge="1">
                    <mxGeometry relative="1" as="geometry">
                        <mxPoint x="926.0000000000002" y="1828.5" as="sourcePoint"/>
                        <mxPoint x="925.9999999999998" y="1704" as="targetPoint"/>
                    </mxGeometry>
                </mxCell>
                <mxCell id="79" value="Query Azure OpenAI instance" style="shape=process;whiteSpace=wrap;html=1;backgroundOutline=1;" parent="1" vertex="1">
                    <mxGeometry x="863" y="1828.5" width="136" height="60" as="geometry"/>
                </mxCell>
                <mxCell id="118" style="edgeStyle=none;html=1;" parent="1" edge="1">
                    <mxGeometry relative="1" as="geometry">
                        <mxPoint x="935.9999999999998" y="1704" as="sourcePoint"/>
                        <mxPoint x="936.0000000000002" y="1828.5" as="targetPoint"/>
                    </mxGeometry>
                </mxCell>
                <mxCell id="84" style="edgeStyle=none;html=1;" parent="1" source="82" target="79" edge="1">
                    <mxGeometry relative="1" as="geometry"/>
                </mxCell>
                <mxCell id="82" value="Genereate queries" style="shape=process;whiteSpace=wrap;html=1;backgroundOutline=1;" parent="1" vertex="1">
                    <mxGeometry x="679" y="1867" width="136" height="60" as="geometry"/>
                </mxCell>
                <mxCell id="101" style="edgeStyle=none;html=1;" parent="1" source="91" target="100" edge="1">
                    <mxGeometry relative="1" as="geometry"/>
                </mxCell>
                <mxCell id="144" style="edgeStyle=orthogonalEdgeStyle;html=1;rounded=0;" edge="1" parent="1" source="91" target="79">
                    <mxGeometry relative="1" as="geometry">
                        <Array as="points">
                            <mxPoint x="1112" y="1936"/>
                            <mxPoint x="931" y="1936"/>
                        </Array>
                    </mxGeometry>
                </mxCell>
                <mxCell id="145" value="Retry failed entries" style="edgeLabel;html=1;align=center;verticalAlign=middle;resizable=0;points=[];" vertex="1" connectable="0" parent="144">
                    <mxGeometry x="0.0883" relative="1" as="geometry">
                        <mxPoint x="-1" as="offset"/>
                    </mxGeometry>
                </mxCell>
                <mxCell id="91" value="Unpack and&amp;nbsp;&lt;div&gt;validate responses&lt;/div&gt;" style="shape=process;whiteSpace=wrap;html=1;backgroundOutline=1;" parent="1" vertex="1">
                    <mxGeometry x="1039" y="1828.5" width="145" height="60" as="geometry"/>
                </mxCell>
                <mxCell id="95" style="edgeStyle=none;html=1;" parent="1" source="93" target="76" edge="1">
                    <mxGeometry relative="1" as="geometry"/>
                </mxCell>
                <mxCell id="96" style="edgeStyle=none;html=1;" parent="1" source="93" target="82" edge="1">
                    <mxGeometry relative="1" as="geometry"/>
                </mxCell>
                <mxCell id="105" style="edgeStyle=orthogonalEdgeStyle;html=1;entryX=0.5;entryY=1;entryDx=0;entryDy=0;rounded=0;curved=0;" parent="1" source="93" target="100" edge="1">
                    <mxGeometry relative="1" as="geometry">
                        <Array as="points">
                            <mxPoint x="482" y="1997"/>
                            <mxPoint x="1283" y="1997"/>
                        </Array>
                    </mxGeometry>
                </mxCell>
                <mxCell id="93" value="Check cache" style="shape=process;whiteSpace=wrap;html=1;backgroundOutline=1;" parent="1" vertex="1">
                    <mxGeometry x="422" y="1827.4899999999998" width="120" height="60" as="geometry"/>
                </mxCell>
                <mxCell id="98" value="Cache&lt;br&gt;Misses" style="text;html=1;align=center;verticalAlign=middle;whiteSpace=wrap;rounded=0;" parent="1" vertex="1">
                    <mxGeometry x="577" y="1838" width="60" height="30" as="geometry"/>
                </mxCell>
                <mxCell id="112" style="edgeStyle=none;html=1;" parent="1" source="100" target="111" edge="1">
                    <mxGeometry relative="1" as="geometry"/>
                </mxCell>
                <mxCell id="100" value="Concatenate with cache hits" style="shape=process;whiteSpace=wrap;html=1;backgroundOutline=1;" parent="1" vertex="1">
                    <mxGeometry x="1215" y="1828.5" width="136" height="60" as="geometry"/>
                </mxCell>
                <mxCell id="97" value="Cache Hits" style="text;html=1;align=center;verticalAlign=middle;whiteSpace=wrap;rounded=0;labelBackgroundColor=default;" parent="1" vertex="1">
                    <mxGeometry x="452" y="1912.25" width="60" height="30" as="geometry"/>
                </mxCell>
                <mxCell id="110" value="Perform Batching" style="text;html=1;align=center;verticalAlign=middle;resizable=0;points=[];autosize=1;strokeColor=none;fillColor=none;" parent="1" vertex="1">
                    <mxGeometry x="691.5" y="1930" width="111" height="26" as="geometry"/>
                </mxCell>
                <mxCell id="129" style="edgeStyle=none;html=1;" parent="1" edge="1">
                    <mxGeometry relative="1" as="geometry">
                        <mxPoint x="1443.9999999999995" y="1828.5" as="sourcePoint"/>
                        <mxPoint x="1444" y="1696" as="targetPoint"/>
                    </mxGeometry>
                </mxCell>
                <mxCell id="131" style="edgeStyle=none;html=1;" parent="1" source="111" target="113" edge="1">
                    <mxGeometry relative="1" as="geometry"/>
                </mxCell>
                <mxCell id="111" value="Join on user IDs" style="shape=process;whiteSpace=wrap;html=1;backgroundOutline=1;" parent="1" vertex="1">
                    <mxGeometry x="1381" y="1828.5" width="136" height="60" as="geometry"/>
                </mxCell>
                <mxCell id="113" value="Results&lt;div&gt;&lt;i&gt;JSON&lt;/i&gt;&lt;/div&gt;" style="shape=note;whiteSpace=wrap;html=1;backgroundOutline=1;darkOpacity=0.05;" parent="1" vertex="1">
                    <mxGeometry x="1624" y="1781.8600000000001" width="122" height="151.25" as="geometry"/>
                </mxCell>
                <mxCell id="120" style="edgeStyle=orthogonalEdgeStyle;html=1;entryX=1;entryY=0.5;entryDx=0;entryDy=0;entryPerimeter=0;rounded=0;" parent="1" source="91" target="70" edge="1">
                    <mxGeometry relative="1" as="geometry">
                        <Array as="points">
                            <mxPoint x="1113" y="1611"/>
                        </Array>
                    </mxGeometry>
                </mxCell>
                <mxCell id="121" value="Update cache" style="edgeLabel;html=1;align=center;verticalAlign=middle;resizable=0;points=[];" parent="120" vertex="1" connectable="0">
                    <mxGeometry x="-0.6515" y="1" relative="1" as="geometry">
                        <mxPoint as="offset"/>
                    </mxGeometry>
                </mxCell>
                <mxCell id="127" value="" style="group" parent="1" vertex="1" connectable="0">
                    <mxGeometry x="1389" y="1622" width="133" height="74" as="geometry"/>
                </mxCell>
                <mxCell id="125" value="Azure OpenAI&lt;div&gt;&lt;i&gt;generate justification&lt;/i&gt;&lt;/div&gt;" style="shape=process;whiteSpace=wrap;html=1;backgroundOutline=1;" parent="127" vertex="1">
                    <mxGeometry y="14" width="120" height="60" as="geometry"/>
                </mxCell>
                <mxCell id="126" value="" style="verticalLabelPosition=bottom;verticalAlign=top;html=1;shape=mxgraph.basic.4_point_star_2;dx=0.8;" parent="127" vertex="1">
                    <mxGeometry x="100" width="33" height="33" as="geometry"/>
                </mxCell>
                <mxCell id="128" value="" style="group" parent="1" vertex="1" connectable="0">
                    <mxGeometry x="882" y="1630" width="133" height="74" as="geometry"/>
                </mxCell>
                <mxCell id="81" value="Azure OpenAI&lt;div&gt;&lt;i&gt;detect overlapping licenses&lt;/i&gt;&lt;/div&gt;" style="shape=process;whiteSpace=wrap;html=1;backgroundOutline=1;" parent="128" vertex="1">
                    <mxGeometry x="-22" y="14" width="142" height="60" as="geometry"/>
                </mxCell>
                <mxCell id="90" value="" style="verticalLabelPosition=bottom;verticalAlign=top;html=1;shape=mxgraph.basic.4_point_star_2;dx=0.8;" parent="128" vertex="1">
                    <mxGeometry x="100" width="33" height="33" as="geometry"/>
                </mxCell>
                <mxCell id="130" style="edgeStyle=none;html=1;" parent="1" edge="1">
                    <mxGeometry relative="1" as="geometry">
                        <mxPoint x="1454" y="1696" as="sourcePoint"/>
                        <mxPoint x="1453.9999999999995" y="1828.5" as="targetPoint"/>
                    </mxGeometry>
                </mxCell>
                <mxCell id="132" value="&lt;span style=&quot;font-style: normal;&quot;&gt;&lt;font&gt;Infer overlap in one set from another set:&lt;/font&gt;&lt;/span&gt;&lt;div&gt;&lt;span style=&quot;font-style: normal;&quot;&gt;If X overlaps with (Y), then X will overlap with (Y, Z).&lt;/span&gt;&lt;/div&gt;&lt;div&gt;&lt;span style=&quot;font-style: normal;&quot;&gt;&lt;br&gt;&lt;/span&gt;&lt;/div&gt;&lt;div&gt;&lt;span style=&quot;font-style: normal;&quot;&gt;This can improve the cache if looking for the &#39;has overlap&#39; attribute but is less useful for identifying redundant licenses.&lt;/span&gt;&lt;/div&gt;" style="text;html=1;align=left;verticalAlign=top;whiteSpace=wrap;rounded=0;fontStyle=2" parent="1" vertex="1">
                    <mxGeometry x="637" y="1491" width="459" height="85" as="geometry"/>
                </mxCell>
                <mxCell id="134" style="edgeStyle=none;html=1;" edge="1" parent="1" source="133" target="68">
                    <mxGeometry relative="1" as="geometry"/>
                </mxCell>
                <mxCell id="133" value="Hash names (Anonymise Users)" style="shape=process;whiteSpace=wrap;html=1;backgroundOutline=1;" vertex="1" parent="1">
                    <mxGeometry x="78" y="1827.5" width="144" height="60" as="geometry"/>
                </mxCell>
                <mxCell id="136" value="&lt;span style=&quot;&quot;&gt;&lt;font&gt;&lt;i&gt;How to automatically invalidate required sections of cache when licensing changes?&lt;/i&gt;&lt;/font&gt;&lt;/span&gt;" style="text;html=1;align=left;verticalAlign=top;whiteSpace=wrap;rounded=0;fontStyle=0" vertex="1" parent="1">
                    <mxGeometry x="272" y="1491" width="302" height="74" as="geometry"/>
                </mxCell>
                <mxCell id="137" value="&lt;span style=&quot;&quot;&gt;&lt;font&gt;&lt;i&gt;Can probably move this step into the single previous query using JSON structured output.&lt;/i&gt;&lt;/font&gt;&lt;/span&gt;" style="text;html=1;align=left;verticalAlign=top;whiteSpace=wrap;rounded=0;fontStyle=0" vertex="1" parent="1">
                    <mxGeometry x="1315" y="1585" width="302" height="74" as="geometry"/>
                </mxCell>
                <mxCell id="142" value="&lt;span style=&quot;color: rgb(0, 0, 0); font-size: 11px;&quot;&gt;JSON Output&lt;/span&gt;" style="text;html=1;align=center;verticalAlign=middle;resizable=0;points=[];autosize=1;strokeColor=none;fillColor=none;" vertex="1" parent="1">
                    <mxGeometry x="934" y="1758.86" width="83" height="26" as="geometry"/>
                </mxCell>
            </root>
        </mxGraphModel>
    </diagram>
</mxfile>